<svg width="270" height="31" viewBox="0 0 270 31" fill="none" xmlns="http://www.w3.org/2000/svg">
<path fill-rule="evenodd" clip-rule="evenodd" d="M179.816 28.1519V2.68164H181.472V28.1519H179.816Z" fill="black"/>
<path d="M148.984 15.4814C148.117 14.9031 147.144 14.4826 146.224 13.9831C145.62 13.6414 144.989 13.3523 144.489 12.9317C143.622 12.222 143.806 10.8026 144.7 10.1718C146.014 9.3044 148.195 9.77753 148.432 11.5649C148.432 11.5912 148.458 11.6175 148.511 11.6175H150.509C150.561 11.6175 150.587 11.5912 150.587 11.5386C150.482 10.3032 150.009 9.27811 149.142 8.62099C148.301 7.99014 147.354 7.64844 146.329 7.64844C141.072 7.64844 140.599 13.1946 143.438 14.9557C143.753 15.166 146.539 16.5591 147.512 17.1636C148.485 17.7682 148.8 18.8722 148.379 19.7659C147.985 20.5544 146.986 21.1064 145.988 21.0538C144.884 21.0013 144.042 20.3967 143.753 19.4767C143.701 19.319 143.674 18.9773 143.674 18.8459C143.674 18.8196 143.648 18.767 143.596 18.767H141.44C141.414 18.767 141.361 18.7933 141.361 18.8459C141.361 20.3967 141.756 21.2641 142.807 22.0527C143.806 22.7886 144.884 23.1041 146.014 23.1041C148.958 23.1041 150.482 21.4481 150.771 19.7133C151.008 18.0048 150.482 16.4802 148.984 15.4814Z" fill="#161616"/>
<path d="M116.022 7.91211C115.996 7.91211 115.97 7.93839 115.944 7.96468L114.182 13.8C114.156 13.8788 114.051 13.8788 114.025 13.8L112.264 7.96468C112.264 7.93839 112.237 7.91211 112.185 7.91211H108.899C108.873 7.91211 108.82 7.93839 108.82 7.99096V22.8683C108.82 22.8946 108.847 22.9472 108.899 22.9472H111.055C111.081 22.9472 111.133 22.9209 111.133 22.8683V11.5657C111.133 11.4869 111.265 11.4606 111.291 11.5395L113.078 17.401L113.21 17.8216C113.21 17.8479 113.236 17.8742 113.289 17.8742H114.945C114.971 17.8742 114.997 17.8479 115.024 17.8216L115.155 17.401L116.942 11.5395C116.969 11.4606 117.1 11.4869 117.1 11.5657V22.8683C117.1 22.8946 117.126 22.9472 117.179 22.9472H119.334C119.361 22.9472 119.413 22.9209 119.413 22.8683V7.99096C119.413 7.96468 119.387 7.91211 119.334 7.91211H116.022Z" fill="#161616"/>
<path d="M88.2653 7.91211H78.093C78.0667 7.91211 78.0142 7.93839 78.0142 7.99096V9.85721C78.0142 9.88349 78.0404 9.93606 78.093 9.93606H82.0358V22.8683C82.0358 22.8946 82.0621 22.9472 82.1146 22.9472H84.27C84.2963 22.9472 84.3489 22.9209 84.3489 22.8683V9.93606H88.2916C88.3179 9.93606 88.3705 9.90978 88.3705 9.85721V7.99096C88.3442 7.96468 88.3179 7.91211 88.2653 7.91211Z" fill="#161616"/>
<path d="M95.8092 16.3757L97.3863 10.5667C97.4126 10.4879 97.5177 10.4879 97.544 10.5667L99.1211 16.3757C99.1211 16.4283 99.0949 16.4809 99.0423 16.4809H95.8881C95.8355 16.4809 95.8092 16.4283 95.8092 16.3757ZM100.961 22.947H102.932C102.985 22.947 103.011 22.8944 103.011 22.8419L98.9634 7.91195C98.9634 7.88566 98.9371 7.85938 98.8846 7.85938H96.0721C96.0458 7.85938 96.0195 7.88566 95.9932 7.91195L91.9453 22.8419C91.9453 22.8944 91.9716 22.947 92.0242 22.947H93.9955C94.0218 22.947 94.0481 22.9207 94.0744 22.8944L95.2572 18.5574C95.2572 18.5311 95.2835 18.5048 95.3361 18.5048H99.6731C99.6994 18.5048 99.7257 18.5311 99.752 18.5574L100.935 22.8944C100.882 22.9207 100.935 22.947 100.961 22.947Z" fill="#161616"/>
<path d="M129.217 16.3757L130.795 10.5667C130.821 10.4879 130.926 10.4879 130.952 10.5667L132.529 16.3757C132.529 16.4283 132.503 16.4809 132.45 16.4809H129.296C129.244 16.4809 129.217 16.4283 129.217 16.3757ZM134.369 22.947H136.341C136.393 22.947 136.42 22.8944 136.42 22.8419L132.372 7.91195C132.372 7.88566 132.345 7.85938 132.293 7.85938H129.48C129.454 7.85938 129.428 7.88566 129.401 7.91195L125.354 22.8419C125.354 22.8944 125.38 22.947 125.432 22.947H127.404C127.43 22.947 127.456 22.9207 127.483 22.8944L128.665 18.5574C128.665 18.5311 128.692 18.5048 128.744 18.5048H133.081C133.108 18.5048 133.134 18.5311 133.16 18.5574L134.343 22.8944C134.29 22.9207 134.317 22.947 134.369 22.947Z" fill="#161616"/>
<path d="M65.6075 20.7392V16.1393C65.6075 16.1131 65.6338 16.0605 65.6864 16.0605H71.4165C71.4428 16.0605 71.4954 16.0342 71.4954 15.9816V14.1154C71.4954 14.0891 71.4691 14.0365 71.4165 14.0365H65.6864C65.6601 14.0365 65.6075 14.0102 65.6075 13.9577V10.0149C65.6075 9.98863 65.6338 9.93606 65.6864 9.93606H72.2051C72.2314 9.93606 72.2839 9.90978 72.2839 9.85721V7.99096C72.2839 7.96468 72.2576 7.91211 72.2051 7.91211H63.3733C63.347 7.91211 63.2944 7.93839 63.2944 7.99096V22.842C63.2944 22.8683 63.3207 22.9209 63.3733 22.9209H72.4679C72.4942 22.9209 72.5468 22.8946 72.5468 22.842V20.8707C72.5468 20.8444 72.5205 20.7918 72.4679 20.7918H65.6601C65.6338 20.8181 65.6075 20.7918 65.6075 20.7392Z" fill="#161616"/>
<path d="M168.645 22.8158L161.206 15.1142C161.18 15.0879 161.18 15.0354 161.206 15.0091L167.909 8.04353C167.962 7.99096 167.909 7.91211 167.857 7.91211H165.123C165.097 7.91211 165.097 7.91211 165.07 7.93839L159.393 13.8525C159.34 13.9051 159.261 13.8525 159.261 13.8V8.01725C159.261 7.99096 159.235 7.93839 159.182 7.93839H157.027C157.001 7.93839 156.948 7.96468 156.948 8.01725V22.8946C156.948 22.9209 156.975 22.9735 157.027 22.9735H159.182C159.209 22.9735 159.261 22.9472 159.261 22.8946V16.3496C159.261 16.2971 159.34 16.2445 159.393 16.2971L165.833 22.9472C165.833 22.9472 165.859 22.9735 165.885 22.9735H168.619C168.671 22.9472 168.698 22.8683 168.645 22.8158Z" fill="#161616"/>
<path d="M56.7759 7.91211H53.5166C53.4903 7.91211 53.464 7.93839 53.4377 7.96468L51.6766 13.8C51.6503 13.8788 51.5452 13.8788 51.5189 13.8L49.7578 7.96468C49.7578 7.93839 49.7315 7.91211 49.6789 7.91211H46.3933C46.367 7.91211 46.3145 7.93839 46.3145 7.99096V22.8683C46.3145 22.8946 46.3407 22.9472 46.3933 22.9472H48.5487C48.575 22.9472 48.6275 22.9209 48.6275 22.8683V11.5657C48.6275 11.4869 48.759 11.4606 48.7852 11.5395L50.5726 17.401L50.7041 17.8216C50.7041 17.8479 50.7303 17.8742 50.7829 17.8742H52.4389C52.4652 17.8742 52.4915 17.8479 52.5177 17.8216L52.6492 17.401L54.4365 11.5395C54.4628 11.4606 54.5943 11.4869 54.5943 11.5657V22.8683C54.5943 22.8946 54.6205 22.9472 54.6731 22.9472H56.8285C56.8548 22.9472 56.9073 22.9209 56.9073 22.8683V7.99096C56.8548 7.96468 56.8285 7.91211 56.7759 7.91211Z" fill="#161616"/>
<path d="M31.9102 0L18.7939 9.59406L21.2385 3.94276L31.9102 0Z" fill="#E27625"/>
<path d="M1.68164 0L14.6665 9.67291L12.3534 3.94276L1.68164 0Z" fill="#E27625"/>
<path d="M27.2049 22.2363L23.709 27.5196L31.1739 29.5436L33.3293 22.3678L27.2049 22.2363Z" fill="#E27625"/>
<path d="M0.289062 22.3678L2.41815 29.5436L9.85683 27.5196L6.3872 22.2363L0.289062 22.3678Z" fill="#E27625"/>
<path d="M9.46275 13.3523L7.38623 16.4277L14.7723 16.7694L14.5358 8.91016L9.46275 13.3523Z" fill="#E27625"/>
<path d="M24.1298 13.352L18.9779 8.80469L18.7939 16.7691L26.2063 16.4274L24.1298 13.352Z" fill="#E27625"/>
<path d="M9.85645 27.5212L14.3512 25.3921L10.4873 22.4219L9.85645 27.5212Z" fill="#E27625"/>
<path d="M19.2412 25.3921L23.7097 27.5212L23.1051 22.4219L19.2412 25.3921Z" fill="#E27625"/>
<path d="M23.7097 27.5217L19.2412 25.3926L19.6092 28.2577L19.5566 29.4668L23.7097 27.5217Z" fill="#D7C1B3"/>
<path d="M9.85645 27.5217L14.0095 29.4668L13.9832 28.2577L14.3512 25.3926L9.85645 27.5217Z" fill="#D7C1B3"/>
<path d="M14.0885 20.53L10.3823 19.4524L13.0108 18.2695L14.0885 20.53Z" fill="#2F343B"/>
<path d="M19.5039 20.53L20.5816 18.2695L23.2101 19.4524L19.5039 20.53Z" fill="#2F343B"/>
<path d="M9.85733 27.5196L10.5145 22.2363L6.3877 22.3678L9.85733 27.5196Z" fill="#CC6228"/>
<path d="M23.0781 22.2363L23.709 27.5196L27.2049 22.3678L23.0781 22.2363Z" fill="#CC6228"/>
<path d="M26.2063 16.4277L18.7939 16.7694L19.5036 20.5282L20.5813 18.2677L23.2098 19.4505L26.2063 16.4277Z" fill="#CC6228"/>
<path d="M10.3827 19.4505L13.0112 18.2677L14.0889 20.5282L14.7723 16.7694L7.38623 16.4277L10.3827 19.4505Z" fill="#CC6228"/>
<path d="M7.38623 16.4277L10.4879 22.4207L10.3827 19.4505L7.38623 16.4277Z" fill="#E27625"/>
<path d="M23.2096 19.4505L23.1045 22.4207L26.2061 16.4277L23.2096 19.4505Z" fill="#E27625"/>
<path d="M14.7723 16.7695L14.0889 20.5283L14.9563 24.9442L15.1666 19.1089L14.7723 16.7695Z" fill="#E27625"/>
<path d="M18.7939 16.7695L18.4521 19.1089L18.6099 24.9442L19.5036 20.5283L18.7939 16.7695Z" fill="#E27625"/>
<path d="M19.5036 20.5289L18.6099 24.9448L19.2407 25.3916L23.1046 22.4214L23.2098 19.4512L19.5036 20.5289Z" fill="#F5841F"/>
<path d="M10.3823 19.4512L10.4875 22.4214L14.3514 25.3916L14.9559 24.9448L14.0885 20.5289L10.3823 19.4512Z" fill="#F5841F"/>
<path d="M19.5556 29.4646L19.6082 28.2555L19.2665 27.9664H14.3249L13.9832 28.2555L14.0095 29.4646L9.85645 27.5195L11.3284 28.7024L14.2723 30.7H19.3191L22.263 28.7024L23.7087 27.5195L19.5556 29.4646Z" fill="#C0AD9E"/>
<path d="M19.2404 25.3922L18.6096 24.9453H14.9559L14.3514 25.3922L13.9834 28.2572L14.3251 27.9681H19.2667L19.6084 28.2572L19.2404 25.3922Z" fill="#2F343B"/>
<path d="M32.4626 10.2249L33.5666 4.91531L31.9106 0L19.2412 9.27863L24.1302 13.3528L31.0169 15.3242L32.5152 13.5631L31.8581 13.09L32.9095 12.1437L32.1209 11.5392L33.1723 10.7506L32.4626 10.2249Z" fill="#763E1A"/>
<path d="M0 4.91531L1.13026 10.2249L0.420561 10.7506L1.47197 11.5392L0.683412 12.1437L1.73482 13.09L1.0514 13.5631L2.57594 15.3242L9.46263 13.3528L14.3517 9.27863L1.68225 0L0 4.91531Z" fill="#763E1A"/>
<path d="M31.0163 15.3249L24.1296 13.3535L26.2061 16.4289L23.1045 22.4219L27.205 22.3693H33.3294L31.0163 15.3249Z" fill="#F5841F"/>
<path d="M9.46256 13.3535L2.57586 15.3249L0.289062 22.3693H6.3872L10.4877 22.4219L7.38604 16.4289L9.46256 13.3535Z" fill="#F5841F"/>
<path d="M18.7939 16.7685L19.2407 9.27728L21.2384 3.94141H12.354L14.3517 9.27728L14.7722 16.7685L14.9562 19.1342V24.9432H18.6099L18.6361 19.1342L18.7939 16.7685Z" fill="#F5841F"/>
<path d="M196.586 23.2888C195.956 23.2888 195.377 23.2099 194.799 23.0785C194.247 22.9471 193.721 22.7631 193.274 22.5002C192.801 22.2637 192.407 21.9483 192.065 21.6328C191.724 21.3174 191.461 20.9494 191.25 20.5551L192.854 19.346C193.274 19.9769 193.774 20.5026 194.405 20.8706C195.036 21.2386 195.772 21.4226 196.613 21.4226C197.401 21.4226 198.058 21.2123 198.61 20.818C199.162 20.4237 199.425 19.8717 199.425 19.162C199.425 18.5575 199.241 18.0318 198.873 17.6112C198.505 17.1907 197.953 16.8489 197.243 16.5861L195.246 15.8238C194.037 15.377 193.169 14.825 192.617 14.1679C192.065 13.5107 191.802 12.6696 191.802 11.6182C191.802 11.0137 191.934 10.4617 192.17 9.96225C192.407 9.46284 192.749 9.04228 193.169 8.67429C193.59 8.30629 194.089 8.04344 194.668 7.85945C195.246 7.67545 195.877 7.57031 196.56 7.57031C197.506 7.57031 198.374 7.75431 199.136 8.14858C199.898 8.54286 200.503 9.04228 200.976 9.64683L199.53 10.9348C199.136 10.488 198.715 10.12 198.216 9.85711C197.743 9.59426 197.165 9.46284 196.508 9.46284C196.14 9.46284 195.772 9.51541 195.456 9.62055C195.114 9.72569 194.825 9.85711 194.589 10.0411C194.352 10.2251 194.142 10.4354 194.01 10.6982C193.879 10.9611 193.8 11.2502 193.8 11.5656C193.8 12.1965 193.984 12.6959 194.378 13.0639C194.746 13.4056 195.325 13.721 196.113 14.0102L197.953 14.7199C199.083 15.1404 199.951 15.6924 200.555 16.3758C201.16 17.0592 201.475 17.9529 201.475 19.0832C201.475 19.714 201.344 20.3186 201.107 20.818C200.871 21.3437 200.529 21.7905 200.109 22.1323C199.688 22.5002 199.162 22.7894 198.584 22.9734C197.927 23.2099 197.296 23.2888 196.586 23.2888Z" fill="black"/>
<path d="M207.836 23.2627C207.258 23.2627 206.706 23.1576 206.233 22.9473C205.76 22.737 205.339 22.4479 204.998 22.0799C204.656 21.7119 204.393 21.2651 204.183 20.7131C203.999 20.1874 203.894 19.5828 203.894 18.8994V12.3281H205.734V18.6103C205.734 19.504 205.944 20.2137 206.391 20.7394C206.837 21.2651 207.416 21.5279 208.152 21.5279C208.572 21.5279 208.967 21.449 209.308 21.2651C209.676 21.0811 209.992 20.8182 210.255 20.5028C210.517 20.1611 210.728 19.7668 210.885 19.2674C211.043 18.7943 211.122 18.2423 211.122 17.6114V12.3544H212.962V23.0524H211.122V21.3965C210.754 22.0273 210.307 22.5005 209.729 22.7896C209.151 23.105 208.52 23.2627 207.836 23.2627Z" fill="black"/>
<path d="M216.432 27.5213V12.3548H218.272V14.0108C218.64 13.4851 219.139 13.0645 219.822 12.6965C220.48 12.3285 221.242 12.1445 222.057 12.1445C222.793 12.1445 223.502 12.3022 224.133 12.5914C224.764 12.8805 225.342 13.2748 225.789 13.8005C226.262 14.2999 226.63 14.9045 226.893 15.5616C227.156 16.2187 227.287 16.9547 227.287 17.717C227.287 18.4792 227.156 19.2152 226.893 19.8723C226.63 20.5558 226.262 21.134 225.789 21.6334C225.316 22.1329 224.764 22.5271 224.133 22.8426C223.502 23.1317 222.793 23.2894 222.057 23.2894C221.242 23.2894 220.506 23.1054 219.822 22.7374C219.165 22.3694 218.64 21.9226 218.272 21.4232V27.5476H216.432V27.5213ZM221.741 21.5809C222.293 21.5809 222.766 21.4757 223.213 21.2917C223.66 21.0815 224.028 20.8186 224.37 20.4769C224.685 20.1352 224.948 19.7146 225.106 19.2415C225.29 18.7684 225.369 18.269 225.369 17.717C225.369 17.165 225.29 16.6656 225.106 16.1924C224.922 15.7193 224.685 15.325 224.37 14.957C224.054 14.6153 223.66 14.3262 223.213 14.1422C222.766 13.9319 222.267 13.8531 221.741 13.8531C221.189 13.8531 220.716 13.9582 220.269 14.1422C219.822 14.3525 219.454 14.6153 219.113 14.957C218.797 15.2987 218.534 15.7193 218.377 16.1924C218.193 16.6656 218.114 17.165 218.114 17.717C218.114 18.269 218.193 18.7684 218.377 19.2415C218.561 19.7146 218.797 20.1089 219.113 20.4769C219.428 20.8186 219.822 21.1077 220.269 21.2917C220.716 21.4757 221.216 21.5809 221.741 21.5809Z" fill="black"/>
<path d="M229.916 27.5213V12.3548H231.755V14.0108C232.123 13.4851 232.623 13.0645 233.306 12.6965C233.963 12.3285 234.726 12.1445 235.541 12.1445C236.277 12.1445 236.986 12.3022 237.617 12.5914C238.248 12.8805 238.826 13.2748 239.273 13.8005C239.746 14.2999 240.114 14.9045 240.377 15.5616C240.64 16.2187 240.771 16.9547 240.771 17.717C240.771 18.4792 240.64 19.2152 240.377 19.8723C240.114 20.5558 239.746 21.134 239.273 21.6334C238.8 22.1329 238.248 22.5271 237.617 22.8426C236.986 23.1317 236.277 23.2894 235.541 23.2894C234.726 23.2894 233.99 23.1054 233.306 22.7374C232.649 22.3694 232.123 21.9226 231.755 21.4232V27.5476H229.916V27.5213ZM235.251 21.5809C235.803 21.5809 236.277 21.4757 236.723 21.2917C237.17 21.0815 237.538 20.8186 237.88 20.4769C238.195 20.1352 238.458 19.7146 238.616 19.2415C238.8 18.7684 238.879 18.269 238.879 17.717C238.879 17.165 238.8 16.6656 238.616 16.1924C238.432 15.7193 238.195 15.325 237.88 14.957C237.564 14.6153 237.17 14.3262 236.723 14.1422C236.277 13.9319 235.777 13.8531 235.251 13.8531C234.699 13.8531 234.226 13.9582 233.779 14.1422C233.333 14.3525 232.965 14.6153 232.623 14.957C232.307 15.2987 232.045 15.7193 231.887 16.1924C231.703 16.6656 231.624 17.165 231.624 17.717C231.624 18.269 231.703 18.7684 231.887 19.2415C232.071 19.7146 232.307 20.1089 232.623 20.4769C232.938 20.8186 233.333 21.1077 233.779 21.2917C234.2 21.4757 234.699 21.5809 235.251 21.5809Z" fill="black"/>
<path d="M248.157 23.2621C247.342 23.2621 246.607 23.1044 245.923 22.8152C245.24 22.5261 244.635 22.1318 244.136 21.6324C243.636 21.133 243.242 20.5547 242.979 19.8713C242.69 19.1879 242.559 18.4782 242.559 17.6896C242.559 16.9011 242.69 16.1914 242.979 15.508C243.268 14.8246 243.636 14.2463 244.136 13.7469C244.635 13.2474 245.213 12.8532 245.923 12.564C246.607 12.2749 247.369 12.1172 248.157 12.1172C248.946 12.1172 249.708 12.2749 250.392 12.564C251.075 12.8532 251.68 13.2474 252.179 13.7469C252.678 14.2463 253.073 14.8246 253.335 15.508C253.625 16.1914 253.756 16.9011 253.756 17.6896C253.756 18.4782 253.625 19.1879 253.335 19.8713C253.046 20.5547 252.678 21.133 252.179 21.6324C251.68 22.1318 251.101 22.5261 250.392 22.8152C249.708 23.1044 248.946 23.2621 248.157 23.2621ZM248.157 21.5535C248.709 21.5535 249.209 21.4484 249.682 21.2644C250.129 21.0541 250.523 20.7913 250.838 20.4496C251.154 20.1079 251.417 19.6873 251.574 19.2404C251.758 18.7673 251.837 18.2679 251.837 17.7422C251.837 17.2165 251.758 16.7171 251.574 16.2439C251.39 15.7708 251.154 15.3765 250.838 15.0085C250.523 14.6668 250.129 14.3777 249.682 14.1937C249.235 13.9834 248.709 13.9046 248.157 13.9046C247.605 13.9046 247.106 14.0097 246.633 14.1937C246.186 14.404 245.792 14.6668 245.45 15.0085C245.135 15.3503 244.872 15.7708 244.688 16.2439C244.504 16.7171 244.425 17.2165 244.425 17.7422C244.425 18.2942 244.504 18.7936 244.688 19.2404C244.872 19.7136 245.108 20.1079 245.45 20.4496C245.765 20.7913 246.16 21.0804 246.633 21.2644C247.106 21.4484 247.605 21.5535 248.157 21.5535Z" fill="black"/>
<path d="M256.358 12.3551H258.198V14.4317C258.303 14.09 258.461 13.7745 258.671 13.5117C258.882 13.2488 259.118 13.0123 259.407 12.8283C259.67 12.6443 259.959 12.5129 260.275 12.4077C260.59 12.3026 260.879 12.25 261.195 12.25C261.484 12.25 261.747 12.2763 262.036 12.3289V14.2214C261.852 14.1425 261.694 14.1162 261.536 14.09C261.379 14.0637 261.221 14.0637 261.011 14.0637C260.669 14.0637 260.327 14.1425 259.986 14.3002C259.644 14.4579 259.355 14.6682 259.092 14.9836C258.829 15.2728 258.619 15.6671 258.435 16.1402C258.251 16.6133 258.172 17.139 258.172 17.7699V23.0795H256.332V12.3551H256.358Z" fill="black"/>
<path d="M268.344 23.1581C267.871 23.1581 267.45 23.0793 267.03 22.9479C266.636 22.8164 266.294 22.6062 266.005 22.3433C265.716 22.0805 265.479 21.7388 265.321 21.3182C265.164 20.8976 265.085 20.4245 265.085 19.8725V14.0372H262.824V12.355H265.085V9.38477H266.925V12.355H270V14.0372H266.925V19.6359C266.925 20.3194 267.082 20.7925 267.372 21.0553C267.661 21.3182 268.108 21.4496 268.686 21.4496C268.922 21.4496 269.133 21.4233 269.369 21.397C269.606 21.3708 269.816 21.3182 269.974 21.2393V22.8953C269.737 22.9742 269.501 23.0267 269.238 23.0793C268.975 23.1319 268.686 23.1581 268.344 23.1581Z" fill="black"/>
</svg>
